<?xml version="1.0" standalone="no"?>
<!DOCTYPE svg PUBLIC "-//W3C//DTD SVG 20010904//EN"
 "http://www.w3.org/TR/2001/REC-SVG-20010904/DTD/svg10.dtd">
<svg version="1.0" xmlns="http://www.w3.org/2000/svg"
 width="253.000000pt" height="95.000000pt" viewBox="0 0 253.000000 95.000000"
 preserveAspectRatio="xMidYMid meet">
<metadata>
Created by potrace 1.15, written by Peter Selinger 2001-2017
</metadata>
<g transform="translate(0.000000,95.000000) scale(0.100000,-0.100000)"
fill="#000000" stroke="none">
<path d="M197 827 c-20 -7 -53 -25 -72 -40 -63 -50 -66 -63 -68 -315 l-2 -227
139 -3 c76 -1 201 1 276 6 153 10 186 23 237 88 21 28 27 49 31 108 5 82 -5
112 -44 126 -25 10 -25 30 1 30 32 0 45 42 45 142 l0 98 -252 -1 c-163 0 -266
-5 -291 -12z m413 -162 l0 -65 -135 0 -135 0 0 -55 0 -56 58 3 57 3 3 48 3 47
75 0 74 0 0 -87 c0 -95 -2 -100 -40 -126 -20 -14 -50 -17 -171 -17 -144 0
-148 1 -178 26 l-31 26 0 131 c1 189 -3 186 243 187 l177 0 0 -65z"/>
<path d="M1004 811 c-47 -29 -64 -59 -64 -114 0 -44 4 -54 38 -87 46 -47 104
-59 178 -38 l49 14 3 62 3 62 -61 0 c-53 0 -60 -2 -60 -20 0 -16 7 -20 30 -20
27 0 30 -3 30 -30 0 -29 -1 -30 -51 -30 -43 0 -55 5 -80 29 -39 40 -39 82 0
122 24 23 38 29 73 29 24 0 53 -7 64 -15 24 -16 34 -11 34 16 0 27 -31 39 -97
39 -39 0 -68 -6 -89 -19z"/>
<path d="M1240 700 l0 -130 25 0 c24 0 25 3 25 55 0 30 2 55 4 55 2 0 28 -25
58 -56 45 -46 59 -55 82 -52 l29 3 -52 57 c-47 51 -50 57 -30 60 12 2 31 16
43 31 19 26 19 30 5 55 -18 33 -66 51 -136 51 l-53 1 0 -130z"/>
<path d="M1470 735 c0 -65 5 -105 15 -125 30 -57 152 -67 204 -16 24 25 26 34
29 131 l4 105 -26 0 -26 0 0 -95 c0 -110 -14 -135 -73 -135 -54 0 -68 24 -74
134 -6 93 -7 96 -29 96 -24 0 -24 -2 -24 -95z"/>
<path d="M1750 700 l0 -130 25 0 c23 0 25 3 25 49 l0 48 47 7 c52 7 93 38 93
71 0 52 -57 85 -147 85 l-43 0 0 -130z"/>
<path d="M2009 807 c-68 -46 -73 -157 -9 -211 67 -56 185 -36 225 38 29 53 16
122 -29 163 -32 29 -42 33 -94 33 -45 0 -67 -6 -93 -23z m148 -41 c39 -34 39
-98 0 -132 -61 -52 -147 -15 -147 63 1 82 86 122 147 69z"/>
<path d="M954 487 c-2 -7 -3 -65 -2 -128 l3 -114 54 -3 c68 -4 96 3 121 28 26
26 25 65 -1 91 -20 20 -20 23 -5 31 16 9 22 54 8 75 -20 31 -167 48 -178 20z"/>
<path d="M1221 375 c-39 -69 -71 -127 -71 -130 0 -3 11 -5 24 -5 14 0 30 10
40 25 15 23 23 25 85 25 63 0 69 -2 79 -25 8 -17 20 -25 37 -25 14 0 25 4 25
9 0 15 -132 251 -140 251 -4 0 -40 -56 -79 -125z"/>
<path d="M1460 370 l0 -130 25 0 c24 0 25 2 25 75 0 41 3 75 7 75 4 0 45 -37
90 -82 l83 -83 0 138 0 137 -25 0 c-23 0 -24 -3 -27 -77 l-3 -78 -81 78 c-45
42 -84 77 -88 77 -3 0 -6 -58 -6 -130z"/>
<path d="M1710 480 c0 -17 7 -20 50 -20 l49 0 3 -107 c3 -108 3 -108 28 -108
25 0 25 0 28 108 l3 107 49 0 c43 0 50 3 50 20 0 19 -7 20 -130 20 -123 0
-130 -1 -130 -20z"/>
<path d="M1990 370 l0 -131 87 3 c74 3 88 6 91 21 3 15 -5 17 -57 17 l-61 0 0
41 0 41 45 -4 c41 -3 45 -1 45 19 0 21 -5 23 -45 23 -43 0 -45 1 -45 30 0 30
1 30 55 30 48 0 55 2 55 20 0 18 -7 20 -85 20 l-85 0 0 -130z"/>
<path d="M2190 370 l0 -130 25 0 c24 0 25 3 25 55 0 30 4 55 8 55 4 0 32 -25
62 -55 45 -46 60 -55 89 -55 l35 0 -66 68 -67 67 57 60 56 60 -30 3 c-25 3
-37 -5 -80 -52 -28 -31 -54 -56 -58 -56 -3 0 -6 25 -6 55 0 52 -1 55 -25 55
l-25 0 0 -130z"/>
</g>
</svg>
