<?xml version="1.0" encoding="UTF-8" standalone="no"?>
<svg
   xmlns:dc="http://purl.org/dc/elements/1.1/"
   xmlns:cc="http://creativecommons.org/ns#"
   xmlns:rdf="http://www.w3.org/1999/02/22-rdf-syntax-ns#"
   xmlns:svg="http://www.w3.org/2000/svg"
   xmlns="http://www.w3.org/2000/svg"
   xmlns:sodipodi="http://sodipodi.sourceforge.net/DTD/sodipodi-0.dtd"
   xmlns:inkscape="http://www.inkscape.org/namespaces/inkscape"
   version="1.1"
   width="950"
   height="355"
   id="svg2"
   inkscape:version="0.48.4 r9939"
   sodipodi:docname="FireEye,_Inc._logo.svg">
  <metadata
     id="metadata21">
    <rdf:RDF>
      <cc:Work
         rdf:about="">
        <dc:format>image/svg+xml</dc:format>
        <dc:type
           rdf:resource="http://purl.org/dc/dcmitype/StillImage" />
        <dc:title></dc:title>
      </cc:Work>
    </rdf:RDF>
  </metadata>
  <defs
     id="defs19" />
  <sodipodi:namedview
     pagecolor="#ffffff"
     bordercolor="#666666"
     borderopacity="1"
     objecttolerance="10"
     gridtolerance="10"
     guidetolerance="10"
     inkscape:pageopacity="0"
     inkscape:pageshadow="2"
     inkscape:window-width="1645"
     inkscape:window-height="1219"
     id="namedview17"
     showgrid="false"
     showborder="true"
     inkscape:zoom="1.3415842"
     inkscape:cx="486.81807"
     inkscape:cy="29.5"
     inkscape:window-x="747"
     inkscape:window-y="139"
     inkscape:window-maximized="0"
     inkscape:current-layer="svg2" />
  <path
     d="m 348.22432,119.76723 64.60302,0 0,11.72628 -52.2216,0 0,26.89259 49.76898,0 0,11.72987 -49.76898,0 0,40.65993 -12.38142,0 0,-91.00867 z"
     id="F"
     style="fill:#dd1731"
     inkscape:connector-curvature="0" />
  <path
     d="m 425.55923,143.98528 11.68114,0 0,66.79206 -11.68114,0 0,-66.79206 z m 0,-24.98425 11.68114,0 0,14.02203 -11.68114,0 0,-14.02203 z"
     id="i"
     style="fill:#dd1731"
     inkscape:connector-curvature="0" />
  <path
     d="m 457.1072,143.98599 11.68115,0 0,12.23565 0.23342,0 c 5.49044,-10.58199 13.31842,-14.5314 21.02804,-14.5314 2.92275,0 4.44166,0.12914 6.66085,0.76406 l 0,13.76734 c -2.92275,-0.76406 -5.14194,-1.27343 -8.29483,-1.27343 -11.56608,0 -19.62748,7.39305 -19.62748,21.92444 l 0,33.90541 -11.68115,0 0,-66.79207 z"
     id="r"
     style="fill:#dd1731"
     inkscape:connector-curvature="0" />
  <path
     d="m 556.74807,171.26241 c -1.75234,-12.1101 -10.39566,-18.86463 -21.37982,-18.86463 -10.74415,0 -20.44283,6.88367 -22.19516,18.86463 l 43.57498,0 z m -43.92677,9.94348 c 0.93699,13.76376 12.15129,21.1568 22.54695,21.1568 6.66085,0 15.77432,-2.4213 19.74584,-11.85541 l 12.38142,0 c -5.83893,16.06309 -19.50912,22.56294 -31.54205,22.56294 -23.83243,0 -35.51358,-16.44333 -35.51358,-35.68819 0,-19.24846 11.68115,-35.69179 35.51358,-35.69179 16.12281,0 33.17603,10.19817 33.17603,37.8584 l 0,1.65725 -56.30819,0 z"
     id="e1"
     style="fill:#dd1731"
     inkscape:connector-curvature="0" />
  <path
     d="m 583.49799,119.76723 67.05893,0 0,11.72628 -54.67421,0 0,26.38681 53.03694,0 0,11.72628 -53.03694,0 0,29.44303 55.84133,0 0,11.72627 -68.22605,0 0,-91.00867 z"
     id="E"
     style="fill:#090e14"
     inkscape:connector-curvature="0" />
  <path
     d="m 712.69549,143.98599 13.08499,0 -32.0122,78.26007 c -5.84222,14.14758 -10.39566,16.56888 -21.25817,16.56888 -2.92276,0 -5.84222,-0.25469 -8.88004,-0.50937 l 0,-10.70395 c 2.10412,0.12555 3.97152,0.50937 6.77921,0.50937 7.23948,0 8.99182,-1.66083 12.7332,-10.19816 l 2.68604,-6.11962 -28.27409,-67.80722 13.43677,0 21.02803,52.76645 20.67626,-52.76645 z"
     id="y"
     style="fill:#090e14"
     inkscape:connector-curvature="0" />
  <path
     d="m 784.41536,171.26241 c -1.75234,-12.1101 -10.39895,-18.86463 -21.37653,-18.86463 -10.75073,0 -20.44612,6.88367 -22.19845,18.86463 l 43.57498,0 z m -43.92677,9.94348 c 0.93699,13.76376 12.15129,21.1568 22.55024,21.1568 6.65427,0 15.76774,-2.4213 19.74255,-11.85541 l 12.38142,0 c -5.84221,16.06309 -19.50912,22.56294 -31.54205,22.56294 -23.82915,0 -35.51687,-16.44333 -35.51687,-35.68819 0,-19.24846 11.68772,-35.69179 35.51687,-35.69179 16.12281,0 33.17603,10.19817 33.17603,37.8584 l 0,1.65725 -56.30819,0 z"
     id="e2"
     style="fill:#090e14"
     inkscape:connector-curvature="0" />
  <path
     d="m 252.68286,31.080865 c 4.18522,16.32496 18.58857,24.19867 12.08882,43.52963 -3.46851,10.32371 -15.47185,20.3497 -7.25263,34.299975 -2.28823,1.2806 -4.93811,-4.3691 -5.44112,-7.25673 -2.15015,-12.357595 7.30852,-27.868285 7.25263,-40.893095 -0.0493,-12.11727 -8.01866,-17.63784 -6.6477,-29.67978"
     id="flame3"
     style="fill:#dd1731"
     inkscape:connector-curvature="0" />
  <path
     d="m 278.67596,142.53788 c -8.55127,-7.37511 -27.41601,-7.8522 -35.66482,0 -18.84172,17.93198 -2.04494,55.36351 30.2237,47.4898 -26.23902,17.04238 -63.23535,-7.62262 -52.59311,-46.17333 -18.45049,5.81471 -35.89824,12.7199 -51.38324,21.7666 18.83187,25.62635 47.6287,40.37297 86.44641,44.19325 -50.05502,4.04268 -75.45239,-24.5251 -106.39279,-43.53322 26.28175,-14.63542 58.85614,-44.27575 99.7418,-40.8931 11.87512,0.98287 25.54861,5.99048 29.62205,17.15"
     id="eye"
     style="fill:#090e14"
     inkscape:connector-curvature="0" />
  <path
     d="m 272.42443,99.891755 c -2.49207,3.436455 -4.97099,6.890845 -9.06744,8.573205 5.23399,-6.8227 0.80877,-29.891425 11.48388,-32.976335 -1.7622,23.20504 15.3798,31.093095 27.20231,44.849675 9.60662,11.17386 19.91351,24.04802 17.53323,48.14625 -2.51508,25.45775 -26.43957,35.73483 -46.53719,40.34427 16.25432,-8.08177 35.99687,-14.47759 38.67962,-35.72407 4.65208,-36.88271 -26.97874,-52.38263 -39.29441,-73.212995"
     id="flame1"
     style="fill:#dd1731"
     inkscape:connector-curvature="0" />
  <path
     d="m 289.45332,135.79482 c 9.74799,10.67884 14.80116,31.86433 0,43.38256 -9.70525,7.54728 -22.06694,4.24355 -27.60012,-1.62497 -3.56056,-3.77005 -4.22467,-9.19018 -3.53097,-12.76295 1.39398,-7.19216 9.63949,-14.89011 15.15623,-8.84582 -5.01701,-4.51259 -15.2713,9.54531 -6.34852,14.9762 1.04877,0.63851 3.69864,1.01157 3.70851,1.01157 13.22964,0.34795 24.80558,-15.21654 15.18253,-32.36295 -1.34138,-2.38902 -2.85043,-4.9 -4.79016,-7.37869 0,0 -3.85317,-5.20849 -1.70302,-4.10007 1.50905,0.77123 2.83398,1.52452 3.59344,2.11639 0.61151,0.48068 4.74084,3.84539 6.33208,5.58873"
     id="flame2"
     style="fill:#dd1731"
     inkscape:connector-curvature="0" />
  <path
     d="m 791.64235,135.61582 0,-1.05461 6.89428,0 0,1.05461 -2.87344,0 0,8.35798 -1.1474,0 0,-8.35798 -2.87344,0 z"
     id="T"
     style="fill:#090e14"
     inkscape:connector-curvature="0" />
  <path
     d="m 801.08919,134.56121 2.71891,7.90959 2.72878,-7.90959 1.57151,0 0,9.41259 -1.08493,0 0,-7.83067 -0.0296,0 -2.69262,7.83067 -0.97644,0 -2.69261,-7.83067 -0.0263,0 0,7.83067 -1.08823,0 0,-9.41259 1.57152,0 z"
     id="M"
     style="fill:#090e14"
     inkscape:connector-curvature="0" />
</svg>
